<svg width="191" height="28" viewBox="0 0 191 28" fill="none" xmlns="http://www.w3.org/2000/svg">
<g clipPath="url(#clip0_2299_162)">
<mask id="mask0_2299_162" style="mask-type:luminance" maskUnits="userSpaceOnUse" x="0" y="0" width="191" height="28">
<path d="M0 0H190.4V28H0V0Z" fill="white"/>
</mask>
<g mask="url(#mask0_2299_162)">
<path d="M49.1762 12.1602C48.9708 12.1602 48.7683 12.1676 48.5658 12.1742C48.533 12.1759 48.5007 12.1835 48.4706 12.1966C48.417 12.2148 48.3688 12.2461 48.3303 12.2877C48.2918 12.3292 48.2643 12.3797 48.2503 12.4346L47.3823 15.467C47.008 16.7708 47.1471 17.9748 47.7762 18.8587C48.353 19.6763 49.3124 20.156 50.4772 20.212L55.1859 20.4976C55.3259 20.5051 55.4472 20.5723 55.521 20.6834C55.5596 20.7426 55.5839 20.8101 55.5922 20.8803C55.6005 20.9506 55.5924 21.0218 55.5686 21.0884C55.5306 21.1967 55.4623 21.2918 55.3718 21.3623C55.2813 21.4329 55.1723 21.4758 55.058 21.486L50.1655 21.7716C47.5074 21.8948 44.6476 24.0639 43.6443 26.709L43.2915 27.6423C43.2763 27.681 43.2706 27.7227 43.2748 27.7641C43.279 27.8054 43.2929 27.8452 43.3156 27.8801C43.3382 27.9149 43.3688 27.9439 43.4049 27.9645C43.441 27.9852 43.4814 27.9969 43.523 27.9988H60.3734C60.4713 27.9992 60.5667 27.9675 60.645 27.9085C60.7232 27.8495 60.7799 27.7665 60.8064 27.6722C61.1057 26.5964 61.2564 25.4848 61.2544 24.3682C61.2544 17.6295 55.8514 12.1676 49.1836 12.1676" fill="#FBAD41"/>
<path d="M79.8166 17.6263H82.6073V25.3253H87.4774V27.7959H79.8166V17.6263ZM90.3633 22.74V22.7101C90.3633 19.7888 92.6901 17.4228 95.7962 17.4228C98.9014 17.4228 101.199 19.7636 101.199 22.6803V22.7101C101.199 25.6305 98.8725 27.9975 95.7664 27.9975C92.6602 27.9975 90.3633 25.6595 90.3633 22.74ZM98.3545 22.74V22.7101C98.3545 21.242 97.3064 19.9643 95.7664 19.9643C94.2264 19.9643 93.223 21.2121 93.223 22.6803V22.7101C93.223 24.1773 94.2702 25.456 95.7962 25.456C97.3213 25.456 98.3545 24.2072 98.3545 22.74ZM104.612 23.3355V17.63H107.443V23.2813C107.443 24.7485 108.174 25.4439 109.296 25.4439C110.417 25.4439 111.149 24.7747 111.149 23.3513V17.6263H113.978V23.2627C113.978 26.5471 112.126 27.9816 109.266 27.9816C106.406 27.9816 104.609 26.5135 104.609 23.3336M118.247 17.6291H122.128C125.72 17.6291 127.804 19.7207 127.804 22.6523V22.6821C127.804 25.6128 125.69 27.794 122.07 27.794H118.247V17.6263V17.6291ZM122.168 25.2973C123.837 25.2973 124.94 24.3687 124.94 22.7269V22.6971C124.94 21.0693 123.834 20.1257 122.168 20.1257H121.033V25.2973H122.168ZM131.857 17.6263H139.904V20.0977H134.643V21.8244H139.4V24.1624H134.643V27.7959H131.857V17.6263ZM143.783 17.6263H146.572V25.3253H151.443V27.7959H143.783V17.6263ZM158.728 17.5544H161.414L165.697 27.794H162.709L161.973 25.9777H158.092L157.375 27.794H154.441L158.724 17.5544H158.728ZM161.172 23.7853L160.051 20.8948L158.915 23.7853H161.172ZM169.29 17.6291H174.046C175.583 17.6291 176.649 18.0379 177.321 18.7323C177.914 19.3119 178.211 20.0996 178.211 21.0992V21.1291C178.211 22.6821 177.391 23.7144 176.141 24.2501L178.542 27.794H175.322L173.296 24.714H172.076V27.794H169.286V17.6263L169.29 17.6291ZM173.918 22.5104C174.866 22.5104 175.413 22.0465 175.413 21.3064V21.2775C175.413 20.4785 174.84 20.0735 173.903 20.0735H172.079V22.5151H173.921L173.918 22.5113V22.5104ZM182.235 17.6263H190.326V20.0231H184.996V21.5612H189.826V23.7863H184.996V25.3991H190.4V27.7959H182.235V17.6263ZM73.7098 23.9319C73.3197 24.8241 72.4965 25.456 71.4045 25.456C69.8831 25.456 68.8322 24.1773 68.8322 22.7101V22.6793C68.8322 21.2112 69.8533 19.9633 71.3755 19.9633C72.5226 19.9633 73.3972 20.6764 73.7686 21.6499H76.7058C76.2345 19.2316 74.1326 17.4219 71.4017 17.4219C68.2993 17.4219 65.9688 19.7888 65.9688 22.7092V22.7391C65.9688 25.6595 68.2657 27.9965 71.3728 27.9965C74.0262 27.9965 76.1029 26.2568 76.6507 23.9272H73.7061L73.7098 23.9319Z" fill="black"/>
<path d="M41.8199 27.6061L42.1316 26.5095C42.5068 25.2056 42.3677 24.0016 41.7396 23.1177C41.1609 22.3001 40.2024 21.8204 39.0367 21.7644L16.9493 21.4788C16.8806 21.4775 16.8132 21.4601 16.7525 21.4278C16.6919 21.3955 16.6397 21.3493 16.6003 21.2931C16.5615 21.2339 16.537 21.1665 16.5285 21.0962C16.5201 21.026 16.5281 20.9547 16.5517 20.888C16.59 20.779 16.659 20.6834 16.7504 20.6129C16.8419 20.5423 16.9518 20.4998 17.0669 20.4904L39.3605 20.2048C42.0075 20.0825 44.8672 17.9125 45.8705 15.2675L47.1417 11.9075C47.1935 11.765 47.2064 11.6113 47.1791 11.4623C45.7305 4.9084 39.9364 0 33.0092 0C26.6233 0 21.2053 4.16453 19.2612 9.954C17.9523 8.95862 16.313 8.49998 14.6776 8.6716C11.6163 8.9796 9.15227 11.4735 8.848 14.5684C8.76922 15.3414 8.82607 16.1222 9.016 16.8756C4.01333 17.0249 0 21.1671 0 26.2575C0 26.7176 0.0326667 27.1712 0.0989333 27.6136C0.112122 27.7174 0.162737 27.8127 0.241274 27.8818C0.319812 27.9509 0.420868 27.989 0.525467 27.9888H41.3159C41.4307 27.9869 41.5419 27.9479 41.6328 27.8776C41.7236 27.8072 41.7892 27.7094 41.8199 27.5987" fill="#F6821F"/>
</g>
</g>
<defs>
<clipPath id="clip0_2299_162">
<rect width="190.4" height="28" fill="white"/>
</clipPath>
</defs>
</svg>
