<svg xmlns="http://www.w3.org/2000/svg" viewBox="0 0 500 500"><g id="freepik--background-simple--inject-61"><path d="M299.31,333.74s40.34,7.56,78.63-30,50-106.47,25.29-152.43S328.63,79.45,275.11,79c-26.08-.21-46.26,10.93-65,25.75-16.3,12.9-34,24.86-55.21,30.34-21,5.42-42,8.7-56.06,25.4-34.19,40.63-30.82,98.55,18.57,130C170.63,324.32,270.19,337.72,299.31,333.74Z" style="fill:#407BFF"></path><path d="M299.31,333.74s40.34,7.56,78.63-30,50-106.47,25.29-152.43S328.63,79.45,275.11,79c-26.08-.21-46.26,10.93-65,25.75-16.3,12.9-34,24.86-55.21,30.34-21,5.42-42,8.7-56.06,25.4-34.19,40.63-30.82,98.55,18.57,130C170.63,324.32,270.19,337.72,299.31,333.74Z" style="fill:#fff;opacity:0.7000000000000001"></path></g><g id="freepik--control-panel--inject-61"><path d="M355.76,277a110.47,110.47,0,1,0-219,0Z" style="fill:#263238"></path><path d="M355.76,277.48h-219a.49.49,0,0,1-.5-.43,111,111,0,1,1,220,0A.49.49,0,0,1,355.76,277.48Zm-218.56-1H355.33a111.9,111.9,0,0,0,.9-14.15,110,110,0,1,0-219.93,0A111.9,111.9,0,0,0,137.2,276.48Z" style="fill:#263238"></path><rect x="133.66" y="300.53" width="227.6" height="41.8" style="fill:#263238"></rect><path d="M361.26,342.82H133.66a.5.5,0,0,1-.5-.5V300.53a.5.5,0,0,1,.5-.5h227.6a.5.5,0,0,1,.5.5v41.79A.5.5,0,0,1,361.26,342.82Zm-227.1-1h226.6V301H134.16Z" style="fill:#263238"></path><rect x="226.91" y="123.29" width="38.71" height="103.35" style="fill:#fff"></rect><path d="M265.62,227.13H226.91a.5.5,0,0,1-.5-.5V123.29a.5.5,0,0,1,.5-.5h38.71a.5.5,0,0,1,.5.5V226.63A.5.5,0,0,1,265.62,227.13Zm-38.21-1h37.71V123.79H227.41Z" style="fill:#263238"></path><rect x="226.91" y="123.29" width="38.71" height="87.62" style="fill:#263238"></rect><path d="M265.62,211.4H226.91a.5.5,0,0,1-.5-.5V123.29a.5.5,0,0,1,.5-.5h38.71a.5.5,0,0,1,.5.5V210.9A.5.5,0,0,1,265.62,211.4Zm-38.21-1h37.71V123.79H227.41Z" style="fill:#263238"></path><path d="M178,123.29H314.49a0,0,0,0,1,0,0v72a10.42,10.42,0,0,1-10.42,10.42H188.46A10.42,10.42,0,0,1,178,195.27v-72A0,0,0,0,1,178,123.29Z" style="fill:#fff"></path><path d="M304.07,206.19H188.46a10.93,10.93,0,0,1-10.92-10.92v-72a.5.5,0,0,1,.5-.5H314.49a.5.5,0,0,1,.5.5v72A10.93,10.93,0,0,1,304.07,206.19Zm-125.53-82.4v71.48a9.93,9.93,0,0,0,9.92,9.92H304.07a9.93,9.93,0,0,0,9.92-9.92V123.79Z" style="fill:#263238"></path><rect x="166.62" y="113.77" width="159.29" height="82.4" rx="5.38" style="fill:#263238"></rect><path d="M320.53,196.67H172a5.89,5.89,0,0,1-5.88-5.88V119.15a5.88,5.88,0,0,1,5.88-5.88H320.53a5.88,5.88,0,0,1,5.88,5.88v71.64A5.89,5.89,0,0,1,320.53,196.67ZM172,114.27a4.89,4.89,0,0,0-4.88,4.88v71.64a4.89,4.89,0,0,0,4.88,4.88H320.53a4.89,4.89,0,0,0,4.88-4.88V119.15a4.89,4.89,0,0,0-4.88-4.88Z" style="fill:#263238"></path><rect x="175.5" y="119.48" width="141.52" height="70.98" rx="4.19" style="fill:#407BFF"></rect><path d="M312.83,191H179.7a4.71,4.71,0,0,1-4.7-4.69v-62.6a4.7,4.7,0,0,1,4.7-4.69H312.83a4.7,4.7,0,0,1,4.7,4.69v62.6A4.71,4.71,0,0,1,312.83,191ZM179.7,120a3.7,3.7,0,0,0-3.7,3.69v62.6a3.7,3.7,0,0,0,3.7,3.69H312.83a3.7,3.7,0,0,0,3.7-3.69v-62.6a3.7,3.7,0,0,0-3.7-3.69Z" style="fill:#263238"></path><path d="M310.75,127.88h-3.1a.51.51,0,0,1-.5-.5.5.5,0,0,1,.5-.5h3.1a.5.5,0,0,1,.5.5A.51.51,0,0,1,310.75,127.88Z" style="fill:#263238"></path><path d="M303.8,127.88H287a.5.5,0,0,1-.5-.5.5.5,0,0,1,.5-.5h16.8a.5.5,0,0,1,.5.5A.5.5,0,0,1,303.8,127.88Z" style="fill:#263238"></path><path d="M281.49,127.88H238.81a.5.5,0,0,1-.5-.5.5.5,0,0,1,.5-.5h42.68a.5.5,0,0,1,.5.5A.5.5,0,0,1,281.49,127.88Z" style="fill:#263238"></path><path d="M234.68,127.88H192.54a.51.51,0,0,1-.5-.5.5.5,0,0,1,.5-.5h42.14a.5.5,0,0,1,.5.5A.51.51,0,0,1,234.68,127.88Z" style="fill:#263238"></path><path d="M186.48,127.88h-4.7a.51.51,0,0,1-.5-.5.5.5,0,0,1,.5-.5h4.7a.5.5,0,0,1,.5.5A.5.5,0,0,1,186.48,127.88Z" style="fill:#263238"></path><path d="M310.75,136.43H295.81a.5.5,0,0,1-.5-.5.51.51,0,0,1,.5-.5h14.94a.51.51,0,0,1,.5.5A.5.5,0,0,1,310.75,136.43Z" style="fill:#263238"></path><path d="M292.51,136.43H258.63a.5.5,0,0,1-.5-.5.51.51,0,0,1,.5-.5h33.88a.51.51,0,0,1,.5.5A.5.5,0,0,1,292.51,136.43Z" style="fill:#263238"></path><path d="M254,136.43h-4.4a.5.5,0,0,1-.5-.5.5.5,0,0,1,.5-.5H254a.5.5,0,0,1,.5.5A.5.5,0,0,1,254,136.43Z" style="fill:#263238"></path><path d="M246.79,136.43h-7.16a.5.5,0,0,1-.5-.5.51.51,0,0,1,.5-.5h7.16a.5.5,0,0,1,.5.5A.5.5,0,0,1,246.79,136.43Z" style="fill:#263238"></path><path d="M236.6,136.43H205.76a.5.5,0,0,1-.5-.5.5.5,0,0,1,.5-.5H236.6a.5.5,0,0,1,.5.5A.5.5,0,0,1,236.6,136.43Z" style="fill:#263238"></path><path d="M201.63,136.43H181.78a.5.5,0,0,1-.5-.5.51.51,0,0,1,.5-.5h19.85a.5.5,0,0,1,.5.5A.5.5,0,0,1,201.63,136.43Z" style="fill:#263238"></path><path d="M310.75,145h-3.37a.5.5,0,0,1-.5-.5.5.5,0,0,1,.5-.5h3.37a.51.51,0,0,1,.5.5A.5.5,0,0,1,310.75,145Z" style="fill:#263238"></path><path d="M303,145H235.23a.5.5,0,0,1-.5-.5.5.5,0,0,1,.5-.5H303a.5.5,0,0,1,.5.5A.5.5,0,0,1,303,145Z" style="fill:#263238"></path><path d="M230.55,145H218.43a.5.5,0,0,1-.5-.5.5.5,0,0,1,.5-.5h12.12a.51.51,0,0,1,.5.5A.5.5,0,0,1,230.55,145Z" style="fill:#263238"></path><path d="M209.89,145H181.78a.5.5,0,0,1-.5-.5.51.51,0,0,1,.5-.5h28.11a.5.5,0,0,1,.5.5A.5.5,0,0,1,209.89,145Z" style="fill:#263238"></path><path d="M310.75,153.55h-6.4a.5.5,0,0,1-.5-.5.5.5,0,0,1,.5-.5h6.4a.5.5,0,0,1,.5.5A.51.51,0,0,1,310.75,153.55Z" style="fill:#263238"></path><path d="M296.36,153.55h-7.71a.51.51,0,0,1-.5-.5.5.5,0,0,1,.5-.5h7.71a.5.5,0,0,1,.5.5A.5.5,0,0,1,296.36,153.55Z" style="fill:#263238"></path><path d="M284.8,153.55h-7.16a.5.5,0,0,1-.5-.5.5.5,0,0,1,.5-.5h7.16a.5.5,0,0,1,.5.5A.51.51,0,0,1,284.8,153.55Z" style="fill:#263238"></path><path d="M273.51,153.55h-11a.5.5,0,0,1-.5-.5.5.5,0,0,1,.5-.5h11a.5.5,0,0,1,.5.5A.51.51,0,0,1,273.51,153.55Z" style="fill:#263238"></path><path d="M259.19,153.55h-8.54a.5.5,0,0,1-.5-.5.5.5,0,0,1,.5-.5h8.54a.5.5,0,0,1,.5.5A.51.51,0,0,1,259.19,153.55Z" style="fill:#263238"></path><path d="M248.17,153.55h-5.23a.5.5,0,0,1-.5-.5.5.5,0,0,1,.5-.5h5.23a.5.5,0,0,1,.5.5A.5.5,0,0,1,248.17,153.55Z" style="fill:#263238"></path><path d="M239.91,153.55h-33a.51.51,0,0,1-.5-.5.5.5,0,0,1,.5-.5h33a.5.5,0,0,1,.5.5A.5.5,0,0,1,239.91,153.55Z" style="fill:#263238"></path><path d="M204.11,153.55H181.78a.51.51,0,0,1-.5-.5.5.5,0,0,1,.5-.5h22.33a.5.5,0,0,1,.5.5A.51.51,0,0,1,204.11,153.55Z" style="fill:#263238"></path><path d="M261.94,166.45h-9.28a.5.5,0,0,1-.5-.5.5.5,0,0,1,.5-.5h9.28a.5.5,0,0,1,.5.5A.5.5,0,0,1,261.94,166.45Z" style="fill:#263238"></path><path d="M250.6,166.45h-21a.5.5,0,0,1-.5-.5.5.5,0,0,1,.5-.5h21a.5.5,0,0,1,.5.5A.5.5,0,0,1,250.6,166.45Z" style="fill:#263238"></path><path d="M226.64,166.45H223.9a.5.5,0,0,1-.5-.5.51.51,0,0,1,.5-.5h2.74a.5.5,0,0,1,.5.5A.5.5,0,0,1,226.64,166.45Z" style="fill:#263238"></path><path d="M222.19,166.45h-4.45a.5.5,0,0,1-.5-.5.5.5,0,0,1,.5-.5h4.45a.5.5,0,0,1,.5.5A.5.5,0,0,1,222.19,166.45Z" style="fill:#263238"></path><path d="M215.86,166.45H196.69a.5.5,0,0,1-.5-.5.5.5,0,0,1,.5-.5h19.17a.51.51,0,0,1,.5.5A.5.5,0,0,1,215.86,166.45Z" style="fill:#263238"></path><path d="M194.12,166.45H181.78a.5.5,0,0,1-.5-.5.51.51,0,0,1,.5-.5h12.34a.51.51,0,0,1,.5.5A.5.5,0,0,1,194.12,166.45Z" style="fill:#263238"></path><path d="M261.94,175h-2.09a.5.5,0,0,1,0-1h2.09a.5.5,0,0,1,0,1Z" style="fill:#263238"></path><path d="M257.11,175H215a.5.5,0,0,1,0-1h42.11a.5.5,0,0,1,0,1Z" style="fill:#263238"></path><path d="M212.09,175h-7.53a.5.5,0,0,1,0-1h7.53a.5.5,0,1,1,0,1Z" style="fill:#263238"></path><path d="M199.25,175H181.78a.5.5,0,1,1,0-1h17.47a.5.5,0,0,1,0,1Z" style="fill:#263238"></path><path d="M261.94,183.57h-4a.51.51,0,0,1-.5-.5.5.5,0,0,1,.5-.5h4a.5.5,0,0,1,.5.5A.5.5,0,0,1,261.94,183.57Z" style="fill:#263238"></path><path d="M253,183.57h-4.79a.5.5,0,0,1-.5-.5.5.5,0,0,1,.5-.5H253a.5.5,0,0,1,.5.5A.5.5,0,0,1,253,183.57Z" style="fill:#263238"></path><path d="M245.81,183.57h-4.45a.5.5,0,0,1-.5-.5.5.5,0,0,1,.5-.5h4.45a.5.5,0,0,1,.5.5A.5.5,0,0,1,245.81,183.57Z" style="fill:#263238"></path><path d="M238.79,183.57H232a.5.5,0,0,1-.5-.5.5.5,0,0,1,.5-.5h6.84a.5.5,0,0,1,.5.5A.5.5,0,0,1,238.79,183.57Z" style="fill:#263238"></path><path d="M229.89,183.57h-5.3a.5.5,0,0,1-.5-.5.5.5,0,0,1,.5-.5h5.3a.5.5,0,0,1,.5.5A.5.5,0,0,1,229.89,183.57Z" style="fill:#263238"></path><path d="M223.05,183.57h-3.26a.51.51,0,0,1-.5-.5.5.5,0,0,1,.5-.5h3.26a.5.5,0,0,1,.5.5A.51.51,0,0,1,223.05,183.57Z" style="fill:#263238"></path><path d="M217.91,183.57H197.37a.5.5,0,0,1-.5-.5.5.5,0,0,1,.5-.5h20.54a.5.5,0,0,1,.5.5A.5.5,0,0,1,217.91,183.57Z" style="fill:#263238"></path><path d="M195.66,183.57H181.78a.51.51,0,0,1-.5-.5.5.5,0,0,1,.5-.5h13.88a.5.5,0,0,1,.5.5A.5.5,0,0,1,195.66,183.57Z" style="fill:#263238"></path><path d="M248.63,200.08a2.37,2.37,0,1,0-2.36,2.37A2.36,2.36,0,0,0,248.63,200.08Z" style="fill:#407BFF"></path><path d="M246.27,203a2.87,2.87,0,1,1,2.86-2.87A2.88,2.88,0,0,1,246.27,203Zm0-4.73a1.87,1.87,0,1,0,1.86,1.86A1.87,1.87,0,0,0,246.27,198.22Z" style="fill:#263238"></path><rect x="133.66" y="300.53" width="227.6" height="12.28" style="fill:#fff"></rect><path d="M361.26,313.3H133.66a.5.5,0,0,1-.5-.5V300.53a.5.5,0,0,1,.5-.5h227.6a.5.5,0,0,1,.5.5V312.8A.5.5,0,0,1,361.26,313.3Zm-227.1-1h226.6V301H134.16Z" style="fill:#263238"></path><polygon points="299.5 220.52 248.42 220.52 246.87 220.52 195.78 220.52 110.33 245.03 120.11 268.23 246.87 268.23 248.42 268.23 375.17 268.23 384.95 245.03 299.5 220.52" style="fill:#fff"></polygon><path d="M375.17,268.73H120.11a.5.5,0,0,1-.46-.31l-9.78-23.19a.51.51,0,0,1,.33-.68L195.64,220l.14,0H299.5l.14,0,85.44,24.51a.51.51,0,0,1,.32.27.53.53,0,0,1,0,.41l-9.78,23.19A.49.49,0,0,1,375.17,268.73Zm-254.73-1h254.4l9.43-22.37L299.43,221H195.85L111,245.36Z" style="fill:#263238"></path><polygon points="149.91 254.07 139.75 242.01 154.99 238.2 166.35 252.63 149.91 254.07" style="fill:#263238"></polygon><polygon points="167.69 249.63 157.53 237.57 172.77 233.76 184.13 248.18 167.69 249.63" style="fill:#263238"></polygon><polygon points="346.02 254.07 356.18 242.01 340.95 238.2 329.58 252.63 346.02 254.07" style="fill:#263238"></polygon><polygon points="328.25 249.63 338.41 237.57 323.17 233.76 311.81 248.18 328.25 249.63" style="fill:#263238"></polygon><polygon points="161.46 300.53 134.03 300.53 110.33 245.03 166.35 252.63 161.46 300.53" style="fill:#fff"></polygon><path d="M161.46,301H134a.5.5,0,0,1-.46-.31l-23.69-55.49a.48.48,0,0,1,.06-.5.48.48,0,0,1,.46-.19l56,7.59a.5.5,0,0,1,.43.55L162,300.58A.51.51,0,0,1,161.46,301Zm-27.1-1H161l4.8-47-54.67-7.41Z" style="fill:#263238"></path><polygon points="79.92 385.22 79.92 327.34 38.63 226.95 38.63 384.43 78.26 385.22 79.92 385.22" style="fill:#263238"></polygon><path d="M79.92,385.72H78.26l-39.64-.79a.51.51,0,0,1-.49-.5V227a.5.5,0,0,1,.4-.49.49.49,0,0,1,.56.3L80.38,327.15a.41.41,0,0,1,0,.19v57.88A.5.5,0,0,1,79.92,385.72Zm-40.79-1.78,40.29.78V327.44l-40.29-98Z" style="fill:#263238"></path><polygon points="416.07 385.22 416.07 327.34 457.36 226.95 457.36 384.43 417.73 385.22 416.07 385.22" style="fill:#263238"></polygon><path d="M416.07,385.72a.5.5,0,0,1-.5-.5V327.34a.41.41,0,0,1,0-.19L456.9,226.76a.5.5,0,0,1,1,.19V384.43a.51.51,0,0,1-.49.5l-39.63.79Zm.5-1h1.16l39.13-.78V229.48l-40.29,98Z" style="fill:#263238"></path><polygon points="134.03 300.53 79.78 327.34 38.63 226.95 110.33 245.03 134.03 300.53" style="fill:#fff"></polygon><path d="M79.78,327.84a.33.33,0,0,1-.17,0,.46.46,0,0,1-.29-.27L38.17,227.14a.5.5,0,0,1,.08-.51.48.48,0,0,1,.5-.16l71.71,18.08a.48.48,0,0,1,.33.29l23.7,55.49a.5.5,0,0,1-.24.64L80,327.79A.51.51,0,0,1,79.78,327.84ZM39.47,227.68l40.57,99,53.34-26.36L110,245.46Z" style="fill:#263238"></path><polygon points="333.85 300.53 361.28 300.53 384.97 245.03 329.08 252.65 333.85 300.53" style="fill:#fff"></polygon><path d="M361.28,301H333.84a.5.5,0,0,1-.49-.45l-4.76-47.88a.49.49,0,0,1,.43-.54l55.88-7.62a.5.5,0,0,1,.53.69l-23.69,55.49A.5.5,0,0,1,361.28,301Zm-27-1H361l23.22-54.38-54.54,7.43Z" style="fill:#263238"></path><polygon points="372.81 261.76 366.75 262.38 364.39 268.69 370.28 268.18 372.81 261.76" style="fill:#407BFF"></polygon><polygon points="350.91 269.87 356.59 269.37 358.9 263.18 353.2 263.76 350.91 269.87" style="fill:#263238"></polygon><polygon points="353.58 262.76 359.27 262.19 360.82 258.02 355.09 258.72 353.58 262.76" style="fill:#263238"></polygon><polygon points="366.06 261.49 367.67 257.19 361.88 257.89 360.32 262.08 366.06 261.49" style="fill:#263238"></polygon><polygon points="352.15 263.87 346.94 264.4 344.48 270.43 349.86 269.96 352.15 263.87" style="fill:#263238"></polygon><polygon points="361.31 276.92 366.95 276.61 369.89 269.17 364.02 269.68 361.31 276.92" style="fill:#263238"></polygon><polygon points="347.62 278.65 345.76 283.6 351.28 283.6 353.25 278.33 347.62 278.65" style="fill:#263238"></polygon><polygon points="357.64 269.28 363.33 268.78 365.69 262.49 359.95 263.07 357.64 269.28" style="fill:#263238"></polygon><polygon points="367.12 261.39 373.21 260.77 374.98 256.3 368.74 257.06 367.12 261.39" style="fill:#263238"></polygon><polygon points="346.58 278.71 340.97 279.02 339.11 283.6 344.75 283.6 346.58 278.71" style="fill:#263238"></polygon><polygon points="352.52 262.87 354.03 258.85 348.95 259.47 347.34 263.4 352.52 262.87" style="fill:#407BFF"></polygon><polygon points="360.94 277.9 358.81 283.6 364.18 283.6 366.56 277.58 360.94 277.9" style="fill:#263238"></polygon><polygon points="362.97 269.77 357.27 270.27 354.65 277.3 360.27 276.98 362.97 269.77" style="fill:#263238"></polygon><polygon points="347.99 277.68 353.61 277.36 356.22 270.36 350.54 270.86 347.99 277.68" style="fill:#407BFF"></polygon><polygon points="349.49 270.95 344.07 271.42 341.37 278.05 346.95 277.73 349.49 270.95" style="fill:#263238"></polygon><polygon points="359.9 277.96 354.29 278.27 352.3 283.6 357.8 283.6 359.9 277.96" style="fill:#263238"></polygon><polygon points="361.28 300.53 415.52 327.34 456.68 226.95 384.97 245.03 361.28 300.53" style="fill:#fff"></polygon><path d="M415.52,327.84a.59.59,0,0,1-.22,0L361.06,301a.49.49,0,0,1-.24-.64l23.69-55.49a.5.5,0,0,1,.34-.29l71.7-18.08a.5.5,0,0,1,.59.67L416,327.53a.48.48,0,0,1-.29.27A.39.39,0,0,1,415.52,327.84Zm-53.6-27.55,53.34,26.36,40.58-99-70.51,17.78Z" style="fill:#263238"></path><path d="M334.61,300.42H161.27l8.1-76.28a6,6,0,0,1,5.95-5.35H320.56a6,6,0,0,1,5.95,5.35Z" style="fill:#fff"></path><path d="M334.61,300.92H161.27a.51.51,0,0,1-.5-.55l8.1-76.28a6.47,6.47,0,0,1,6.45-5.8H320.56a6.47,6.47,0,0,1,6.44,5.8l8.1,76.28a.47.47,0,0,1-.12.38A.5.5,0,0,1,334.61,300.92Zm-172.78-1H334.05l-8-75.72a5.48,5.48,0,0,0-5.45-4.91H175.32a5.47,5.47,0,0,0-5.45,4.91Z" style="fill:#263238"></path><path d="M205.67,265.67a40.23,40.23,0,0,0,32.7-41.5l-.15-5.38h-62.9l-.57,0a6,6,0,0,0-2.88,1.07l-.21.16a5.56,5.56,0,0,0-.72.65h0a5.72,5.72,0,0,0-1.16,1.81,5.84,5.84,0,0,0-.41,1.62l-8.1,76.28h30.84l1.76-21.63A14.55,14.55,0,0,1,205.67,265.67Z" style="fill:#fff"></path><path d="M192.11,300.92H161.27a.51.51,0,0,1-.5-.55l8.1-76.28a7.1,7.1,0,0,1,.44-1.76,6.49,6.49,0,0,1,1.26-2,7.56,7.56,0,0,1,.78-.71l.24-.17a6.52,6.52,0,0,1,3.11-1.16c.21,0,.41,0,.62,0h62.9a.51.51,0,0,1,.5.49l.15,5.38a40.91,40.91,0,0,1-33.1,42h0a14.09,14.09,0,0,0-11.4,12.67l-1.76,21.63A.5.5,0,0,1,192.11,300.92Zm-30.28-1h29.82l1.72-21.17a15.09,15.09,0,0,1,12.21-13.57,39.91,39.91,0,0,0,32.29-41l-.14-4.91H175.32a4.41,4.41,0,0,0-.52,0,5.56,5.56,0,0,0-2.64,1l-.2.14a5.46,5.46,0,0,0-2.09,3.76Zm43.84-34.25h0Z" style="fill:#263238"></path><ellipse cx="311.15" cy="241.12" rx="9.4" ry="8.62" style="fill:#fff"></ellipse><path d="M311.15,250.24c-5.46,0-9.9-4.09-9.9-9.12s4.44-9.11,9.9-9.11,9.9,4.09,9.9,9.11S316.61,250.24,311.15,250.24Zm0-17.23c-4.91,0-8.9,3.64-8.9,8.11s4,8.12,8.9,8.12,8.9-3.64,8.9-8.12S316.06,233,311.15,233Z" style="fill:#263238"></path><ellipse cx="311.15" cy="241.12" rx="8.06" ry="7.39" style="fill:#407BFF"></ellipse><path d="M311.15,249c-4.72,0-8.56-3.54-8.56-7.89s3.84-7.88,8.56-7.88,8.56,3.54,8.56,7.88S315.87,249,311.15,249Zm0-14.77c-4.17,0-7.56,3.09-7.56,6.88S307,248,311.15,248s7.56-3.09,7.56-6.89S315.31,234.24,311.15,234.24Z" style="fill:#263238"></path><ellipse cx="69.28" cy="259.47" rx="6.83" ry="8.62" transform="translate(-81.6 37.3) rotate(-19.23)" style="fill:#fff"></ellipse><path d="M70.31,268.41c-3.27,0-6.57-2.58-8-6.53a10.4,10.4,0,0,1-.12-6.74,6.38,6.38,0,0,1,9.86-3.43,10.78,10.78,0,0,1,4.22,12.09,6.67,6.67,0,0,1-4,4.28A5.82,5.82,0,0,1,70.31,268.41Zm-2-16.88a4.91,4.91,0,0,0-1.66.28,5.66,5.66,0,0,0-3.42,3.66,9.27,9.27,0,0,0,.12,6.08c1.47,4.23,5.35,6.73,8.64,5.59a5.66,5.66,0,0,0,3.42-3.67,9.28,9.28,0,0,0-.12-6.08h0a9.29,9.29,0,0,0-3.69-4.84A6.12,6.12,0,0,0,68.27,251.53Z" style="fill:#263238"></path><path d="M74.8,257.54c1.35,3.86,0,7.84-3.09,8.91s-6.61-1.2-7.95-5.05,0-7.84,3.09-8.9S73.46,253.69,74.8,257.54Z" style="fill:#407BFF"></path><path d="M70.16,267.21c-2.83,0-5.69-2.24-6.88-5.65-1.43-4.1.1-8.38,3.4-9.53a5.77,5.77,0,0,1,5,.72,9,9,0,0,1,3.55,4.63h0c1.43,4.11-.1,8.38-3.4,9.54A5.35,5.35,0,0,1,70.16,267.21Zm-1.75-14.48A4.21,4.21,0,0,0,67,253c-2.78,1-4,4.68-2.78,8.26s4.53,5.71,7.32,4.74,4-4.68,2.78-8.26h0a7.86,7.86,0,0,0-3.13-4.11A5.27,5.27,0,0,0,68.41,252.73Z" style="fill:#263238"></path><path d="M95,258.33c1.25,3.59,0,7.3-2.88,8.3s-6.16-1.12-7.41-4.71,0-7.3,2.88-8.29S93.73,254.74,95,258.33Z" style="fill:#fff"></path><path d="M90.64,267.37a5.78,5.78,0,0,1-3.11-1,8.72,8.72,0,0,1-3.41-9.77,5.19,5.19,0,0,1,8-2.8,8.7,8.7,0,0,1,3.41,9.78,5.4,5.4,0,0,1-3.28,3.48A5.07,5.07,0,0,1,90.64,267.37ZM89,253.88a4.13,4.13,0,0,0-1.3.22A4.45,4.45,0,0,0,85.07,257a7.7,7.7,0,0,0,3,8.61,4.2,4.2,0,0,0,6.54-2.28,7.37,7.37,0,0,0-.1-4.79h0a7.36,7.36,0,0,0-2.91-3.82A4.78,4.78,0,0,0,89,253.88Z" style="fill:#263238"></path><path d="M94.25,258.59c1.07,3.07,0,6.26-2.47,7.11s-5.28-1-6.35-4,0-6.26,2.46-7.11S93.17,255.51,94.25,258.59Z" style="fill:#407BFF"></path><path d="M90.53,266.41a5.08,5.08,0,0,1-2.71-.83A7.33,7.33,0,0,1,85,261.83c-1.16-3.33.09-6.81,2.78-7.75s5.83,1,7,4.34-.08,6.81-2.78,7.75A4.26,4.26,0,0,1,90.53,266.41Zm-1.39-11.56a3.35,3.35,0,0,0-1.08.18c-2.17.76-3.14,3.66-2.16,6.47a6.18,6.18,0,0,0,2.46,3.23,3.74,3.74,0,0,0,3.25.5c2.18-.76,3.15-3.67,2.17-6.48C93,256.4,91,254.85,89.14,254.85Z" style="fill:#263238"></path><path d="M110.85,259.52c1,2.76,0,5.6-2.21,6.37s-4.73-.86-5.69-3.61,0-5.6,2.21-6.37S109.89,256.77,110.85,259.52Z" style="fill:#fff"></path><path d="M107.53,266.57a5.73,5.73,0,0,1-5-4.13c-1-3,.08-6.15,2.51-7s5.28.91,6.33,3.92h0c1.05,3-.08,6.15-2.52,7A3.93,3.93,0,0,1,107.53,266.57Zm-1.25-10.34a2.89,2.89,0,0,0-1,.16c-1.91.66-2.77,3.23-1.9,5.72s3.13,4,5,3.3,2.77-3.23,1.9-5.72h0A4.73,4.73,0,0,0,106.28,256.23Z" style="fill:#263238"></path><path d="M110.28,259.72c.82,2.36,0,4.8-1.89,5.45s-4-.73-4.88-3.09,0-4.8,1.9-5.45S109.46,257.36,110.28,259.72Z" style="fill:#407BFF"></path><path d="M107.43,265.84a4.06,4.06,0,0,1-2.14-.66,5.89,5.89,0,0,1-2.31-6.63,3.59,3.59,0,0,1,5.52-1.93,5.65,5.65,0,0,1,2.25,2.93h0a5.67,5.67,0,0,1,.07,3.7,3.71,3.71,0,0,1-2.27,2.39A3.31,3.31,0,0,1,107.43,265.84ZM106.37,257a2.4,2.4,0,0,0-.8.13,2.73,2.73,0,0,0-1.65,1.78,4.91,4.91,0,0,0,1.91,5.45,2.74,2.74,0,0,0,2.39.37,2.7,2.7,0,0,0,1.65-1.78,4.88,4.88,0,0,0-1.9-5.45A2.92,2.92,0,0,0,106.37,257Z" style="fill:#263238"></path><rect x="287.02" y="232.51" width="1.92" height="16.09" style="fill:#263238"></rect><rect x="280.51" y="232.51" width="1.92" height="16.09" style="fill:#263238"></rect><rect x="274" y="232.51" width="1.91" height="16.09" style="fill:#263238"></rect><rect x="267.48" y="232.51" width="1.91" height="16.09" style="fill:#263238"></rect><path d="M299.28,257.42H321.5a1.16,1.16,0,0,0,1.15-1.15h0a1.15,1.15,0,0,0-1.15-1.15H299.28a1.15,1.15,0,0,0-1.15,1.15h0A1.16,1.16,0,0,0,299.28,257.42Z" style="fill:#263238"></path><path d="M299.28,264.69H321.5a1.15,1.15,0,0,0,1.15-1.14h0a1.15,1.15,0,0,0-1.15-1.15H299.28a1.15,1.15,0,0,0-1.15,1.15h0A1.15,1.15,0,0,0,299.28,264.69Z" style="fill:#263238"></path><path d="M184.75,263.87a5.19,5.19,0,1,1-5.17-4.74A5,5,0,0,1,184.75,263.87Z" style="fill:#fff"></path><path d="M179.58,269.11a5.26,5.26,0,1,1,5.67-5.24A5.48,5.48,0,0,1,179.58,269.11Zm0-9.48a4.26,4.26,0,1,0,4.67,4.24A4.48,4.48,0,0,0,179.58,259.63Z" style="fill:#263238"></path><ellipse cx="178.82" cy="277.65" rx="5.17" ry="4.74" style="fill:#407BFF"></ellipse><path d="M178.82,282.89a5.26,5.26,0,1,1,5.67-5.24A5.47,5.47,0,0,1,178.82,282.89Zm0-9.48a4.26,4.26,0,1,0,4.67,4.24A4.48,4.48,0,0,0,178.82,273.41Z" style="fill:#263238"></path><path d="M182.3,290.62a5.19,5.19,0,1,1-5.17-4.74A5,5,0,0,1,182.3,290.62Z" style="fill:#407BFF"></path><path d="M177.13,295.86a5.26,5.26,0,1,1,5.67-5.24A5.47,5.47,0,0,1,177.13,295.86Zm0-9.48a4.26,4.26,0,1,0,4.67,4.24A4.48,4.48,0,0,0,177.13,286.38Z" style="fill:#263238"></path><polygon points="415.52 327.34 415.62 385.22 360.06 342.32 361.28 300.53 415.52 327.34" style="fill:#263238"></polygon><path d="M415.62,385.72a.5.5,0,0,1-.31-.1l-55.56-42.9a.48.48,0,0,1-.19-.41l1.22-41.8a.5.5,0,0,1,.24-.41.48.48,0,0,1,.48,0l54.25,26.81a.49.49,0,0,1,.27.45l.1,57.88a.51.51,0,0,1-.28.45A.59.59,0,0,1,415.62,385.72Zm-55.06-43.64,54.56,42.12-.1-56.55-53.26-26.33Z" style="fill:#263238"></path><polygon points="79.92 327.34 79.92 385.22 135.39 342.32 134.17 300.53 79.92 327.34" style="fill:#263238"></polygon><path d="M79.92,385.72a.59.59,0,0,1-.22-.05.5.5,0,0,1-.28-.45V327.34a.5.5,0,0,1,.28-.45l54.24-26.81a.48.48,0,0,1,.48,0,.51.51,0,0,1,.25.41l1.22,41.8a.51.51,0,0,1-.2.41l-55.46,42.9A.5.5,0,0,1,79.92,385.72Zm.5-58.07V384.2l54.46-42.12-1.19-40.76Z" style="fill:#263238"></path><ellipse cx="193.95" cy="241.12" rx="17.62" ry="16.15" style="fill:#fff"></ellipse><path d="M194,257.77c-10,0-18.12-7.46-18.12-16.65S184,224.47,194,224.47s18.11,7.47,18.11,16.65S203.94,257.77,194,257.77Zm0-32.3c-9.44,0-17.12,7-17.12,15.65s7.68,15.65,17.12,15.65,17.11-7,17.11-15.65S203.38,225.47,194,225.47Z" style="fill:#263238"></path><ellipse cx="193.95" cy="241.12" rx="15.25" ry="13.98" style="fill:#407BFF"></ellipse><path d="M194,255.6c-8.69,0-15.76-6.49-15.76-14.48s7.07-14.48,15.76-14.48,15.75,6.5,15.75,14.48S202.63,255.6,194,255.6Zm0-28c-8.14,0-14.76,6.05-14.76,13.48S185.81,254.6,194,254.6s14.75-6,14.75-13.48S202.08,227.64,194,227.64Z" style="fill:#263238"></path><path d="M194,252.16c-6.62,0-12-4.95-12-11s5.37-11,12-11,12,4.95,12,11S200.56,252.16,194,252.16Zm0-21.07c-6.06,0-11,4.5-11,10s4.93,10,11,10,11-4.5,11-10S200,231.09,194,231.09Z" style="fill:#263238"></path><path d="M194,247.56a6.46,6.46,0,1,1,7-6.44A6.73,6.73,0,0,1,194,247.56Zm0-11.87a5.46,5.46,0,1,0,6,5.43A5.73,5.73,0,0,0,194,235.69Z" style="fill:#263238"></path><path d="M194,255.6a.5.5,0,0,1-.5-.5v-28a.5.5,0,0,1,.5-.5.51.51,0,0,1,.5.5v28A.5.5,0,0,1,194,255.6Z" style="fill:#263238"></path><path d="M209.2,241.62H178.69a.5.5,0,0,1-.5-.5.51.51,0,0,1,.5-.5H209.2a.51.51,0,0,1,.5.5A.5.5,0,0,1,209.2,241.62Z" style="fill:#263238"></path><path d="M127.9,263.87l10.41,23.52a1.59,1.59,0,0,0,1.63.94l.36-.05a1.58,1.58,0,0,0,1.26-2.23l-10.78-23.48a1.59,1.59,0,0,0-1.44-.92h0A1.57,1.57,0,0,0,127.9,263.87Z" style="fill:#263238"></path><path d="M139.76,288.84a2.07,2.07,0,0,1-1.9-1.24l-10.42-23.53h0a2.08,2.08,0,0,1,1.9-2.92,2.08,2.08,0,0,1,1.9,1.21L142,285.84a2.09,2.09,0,0,1-1.66,2.94l-.35,0Zm-11.41-25.17,10.42,23.52a1.08,1.08,0,0,0,1.12.64l.35,0a1.09,1.09,0,0,0,.86-1.53l-10.77-23.48a1.12,1.12,0,0,0-1.89-.14,1.05,1.05,0,0,0-.09,1Z" style="fill:#263238"></path><path d="M136.59,266.78a1.9,1.9,0,0,0-.11-3.8l-11.83.07a1.91,1.91,0,1,0,0,3.81l11.83-.07Z" style="fill:#407BFF"></path><path d="M124.66,267.36a2.37,2.37,0,0,1-1.69-.69,2.41,2.41,0,0,1,1.68-4.12l11.83-.07a2.4,2.4,0,0,1,.14,4.8h-.12l-11.83.07Zm11.84-1.07.09.49,0-.49a1.41,1.41,0,0,0-.08-2.81h0l-11.83.07a1.39,1.39,0,0,0-1,.42,1.4,1.4,0,0,0,0,2,1.57,1.57,0,0,0,1,.4Z" style="fill:#263238"></path><path d="M147,263.46,157.4,287a1.59,1.59,0,0,0,1.63.93l.35,0a1.58,1.58,0,0,0,1.26-2.23l-10.77-23.48a1.58,1.58,0,0,0-1.44-.93h0A1.59,1.59,0,0,0,147,263.46Z" style="fill:#263238"></path><path d="M158.84,288.42a2.08,2.08,0,0,1-1.9-1.24l-10.42-23.52a2.08,2.08,0,0,1,3.8-1.71l10.77,23.48a2,2,0,0,1-.07,1.89,2.09,2.09,0,0,1-1.58,1.05l-.36,0Zm-10.41-26.69a1.06,1.06,0,0,0-.91.49,1.08,1.08,0,0,0-.08,1h0l10.41,23.53a1.08,1.08,0,0,0,1.12.63l.35,0a1.08,1.08,0,0,0,.82-.54,1.05,1.05,0,0,0,0-1l-10.77-23.48A1.08,1.08,0,0,0,148.43,261.73Z" style="fill:#263238"></path><path d="M155.68,266.37a1.91,1.91,0,0,0-.12-3.81l-11.83.08a1.91,1.91,0,0,0,0,3.81l11.84-.08Z" style="fill:#407BFF"></path><path d="M143.74,267a2.39,2.39,0,0,1-1.69-.7,2.41,2.41,0,0,1,1.68-4.11l11.83-.08h0a2.41,2.41,0,0,1,1.69.7,2.41,2.41,0,0,1-1.57,4.11h-.11l-11.83.08Zm11.85-1.08.09.5,0-.5a1.4,1.4,0,0,0,1.33-1.41,1.36,1.36,0,0,0-.42-1,1.39,1.39,0,0,0-1-.41h0l-11.84.08a1.39,1.39,0,0,0-1,.41,1.37,1.37,0,0,0-.41,1,1.39,1.39,0,0,0,.41,1,1.61,1.61,0,0,0,1,.41Z" style="fill:#263238"></path><path d="M435.22,256.79c-3,5.82-8.51,8.94-12.39,7s-4.63-8.3-1.67-14.12,8.5-8.95,12.39-7S438.18,251,435.22,256.79Z" style="fill:#fff"></path><path d="M425.34,264.84a6,6,0,0,1-2.74-.64c-2-1-3.34-3.16-3.67-6a15.67,15.67,0,0,1,1.78-8.79c3.08-6.06,8.94-9.28,13.06-7.19s5,8.73,1.89,14.79C433.22,261.82,429,264.84,425.34,264.84ZM431,242.57c-3.29,0-7.12,2.83-9.39,7.3a14.68,14.68,0,0,0-1.68,8.21c.3,2.5,1.41,4.35,3.13,5.23,3.63,1.84,8.89-1.18,11.72-6.75s2.18-11.6-1.45-13.45A5.18,5.18,0,0,0,431,242.57Z" style="fill:#263238"></path><path d="M418.91,263.13a3.19,3.19,0,0,1-2.2-5.51l17.63-16.7a3.19,3.19,0,0,1,4.39,4.64l-17.62,16.7A3.21,3.21,0,0,1,418.91,263.13Z" style="fill:#263238"></path><path d="M405.45,257.67c-2.35,4.62-6.74,7.09-9.82,5.53S392,256.62,394.31,252s6.74-7.09,9.82-5.53S407.8,253.05,405.45,257.67Z" style="fill:#fff"></path><path d="M397.62,264.16a4.86,4.86,0,0,1-2.22-.52c-3.31-1.68-4-7-1.54-11.86s7.17-7.43,10.49-5.75,4,7,1.55,11.87C403.94,261.74,400.58,264.16,397.62,264.16Zm4.48-17.65c-2.57,0-5.57,2.22-7.35,5.72-2.21,4.37-1.72,9.08,1.11,10.52s6.93-.94,9.15-5.31h0c2.21-4.36,1.72-9.08-1.11-10.51A3.87,3.87,0,0,0,402.1,246.51Z" style="fill:#263238"></path><path d="M394.5,264.33a2.53,2.53,0,0,1-2.58-3.93l11-15.77a2.53,2.53,0,0,1,4.15,2.9l-11,15.77A2.5,2.5,0,0,1,394.5,264.33Z" style="fill:#263238"></path><polygon points="394.74 272.63 380.97 302.68 395.52 309.12 411.36 273.49 394.74 272.63" style="fill:#407BFF"></polygon><path d="M395.52,309.62a.45.45,0,0,1-.2,0l-14.56-6.44a.48.48,0,0,1-.26-.28.5.5,0,0,1,0-.38l13.77-30.05a.47.47,0,0,1,.48-.29l16.62.85a.47.47,0,0,1,.4.24.47.47,0,0,1,0,.46L396,309.32A.51.51,0,0,1,395.52,309.62Zm-13.89-7.19,13.64,6L410.6,274l-15.55-.8Z" style="fill:#263238"></path><polygon points="413.4 273.59 397.26 309.89 412.76 316.75 429.77 274.43 413.4 273.59" style="fill:#407BFF"></polygon><path d="M412.76,317.25a.71.71,0,0,1-.2,0l-15.5-6.86a.48.48,0,0,1-.26-.28.46.46,0,0,1,0-.38l16.13-36.3a.48.48,0,0,1,.48-.3l16.38.84a.51.51,0,0,1,.44.69l-17,42.31a.48.48,0,0,1-.28.28A.41.41,0,0,1,412.76,317.25Zm-14.84-7.61,14.57,6.44,16.56-41.18-15.34-.79Z" style="fill:#263238"></path><polygon points="392.69 272.53 381.23 271.94 369.62 297.66 379.22 301.91 392.69 272.53" style="fill:#407BFF"></polygon><path d="M379.22,302.41a.51.51,0,0,1-.2,0l-9.6-4.25a.47.47,0,0,1-.27-.28.5.5,0,0,1,0-.38l11.62-25.72a.49.49,0,0,1,.48-.3l11.46.59a.5.5,0,0,1,.43.71l-13.47,29.38A.52.52,0,0,1,379.22,302.41Zm-8.94-5,8.7,3.85L391.93,273l-10.38-.53Z" style="fill:#263238"></path><polygon points="100.75 299.78 97.31 291.58 85.71 294.44 89.67 304.04 100.75 299.78" style="fill:#fff"></polygon><path d="M89.67,304.54a.49.49,0,0,1-.46-.31l-4-9.6a.51.51,0,0,1,0-.42.51.51,0,0,1,.33-.26l11.6-2.85a.49.49,0,0,1,.58.29l3.45,8.2a.48.48,0,0,1,0,.39.5.5,0,0,1-.28.27l-11.08,4.26Zm-3.28-9.76L90,303.4l10.14-3.9L97,292.17Z" style="fill:#263238"></path><polygon points="83.85 289.93 95.5 287.27 91.81 278.47 79.73 279.95 83.85 289.93" style="fill:#407BFF"></polygon><path d="M83.85,290.43a.51.51,0,0,1-.47-.31l-4.11-10a.51.51,0,0,1,.4-.69L91.74,278a.49.49,0,0,1,.53.3L96,287.07a.5.5,0,0,1,0,.43.47.47,0,0,1-.33.25L84,290.41Zm-3.41-10.06,3.71,9,10.66-2.43L91.49,279Z" style="fill:#263238"></path><polygon points="97.38 286.84 106.97 284.65 103.99 276.98 93.77 278.23 97.38 286.84" style="fill:#fff"></polygon><path d="M97.38,287.34a.51.51,0,0,1-.46-.31l-3.61-8.6a.51.51,0,0,1,0-.45.5.5,0,0,1,.37-.24l10.22-1.25a.48.48,0,0,1,.52.31l3,7.67a.53.53,0,0,1,0,.41.51.51,0,0,1-.33.26l-9.59,2.19Zm-2.89-8.69,3.19,7.61,8.62-2-2.64-6.76Z" style="fill:#263238"></path><polygon points="113.76 275.79 105.94 276.75 108.85 284.22 116.5 282.48 113.76 275.79" style="fill:#407BFF"></polygon><path d="M108.85,284.72a.48.48,0,0,1-.46-.32l-2.92-7.47a.5.5,0,0,1,.41-.68l7.82-1a.5.5,0,0,1,.53.31l2.73,6.69a.48.48,0,0,1,0,.42.51.51,0,0,1-.33.26L109,284.71Zm-2.21-7.56,2.52,6.48,6.65-1.52-2.37-5.79Z" style="fill:#263238"></path><polygon points="108.59 288.81 99.18 291.12 102.53 299.1 111.29 295.73 108.59 288.81" style="fill:#407BFF"></polygon><path d="M102.53,299.6a.51.51,0,0,1-.46-.31l-3.35-8a.49.49,0,0,1,0-.41.47.47,0,0,1,.32-.26l9.41-2.32a.5.5,0,0,1,.59.31l2.69,6.92a.5.5,0,0,1,0,.38.57.57,0,0,1-.28.27l-8.76,3.36A.39.39,0,0,1,102.53,299.6Zm-2.66-8.13,2.94,7,7.83-3-2.35-6Z" style="fill:#263238"></path><polygon points="77.77 280.19 67.18 281.48 71.75 292.69 81.96 290.36 77.77 280.19" style="fill:#fff"></polygon><path d="M71.74,293.19a.49.49,0,0,1-.46-.32l-4.56-11.2a.49.49,0,0,1,0-.44.52.52,0,0,1,.37-.24l10.59-1.3a.5.5,0,0,1,.52.31l4.2,10.17a.49.49,0,0,1,0,.41.47.47,0,0,1-.34.26l-10.21,2.33ZM67.89,281.9l4.16,10.2,9.23-2.1-3.83-9.27Z" style="fill:#263238"></path><polygon points="118.38 282.05 121.73 281.29 119.11 275.13 115.72 275.55 118.38 282.05" style="fill:#fff"></polygon><path d="M118.38,282.55a.5.5,0,0,1-.46-.31l-2.66-6.5a.49.49,0,0,1,0-.44.51.51,0,0,1,.37-.25l3.39-.41a.49.49,0,0,1,.52.3l2.62,6.15a.51.51,0,0,1,0,.42.48.48,0,0,1-.33.26l-3.35.77ZM116.43,276l2.25,5.5,2.35-.54-2.23-5.25Z" style="fill:#263238"></path><polygon points="83.84 294.89 72.57 297.66 77.14 308.87 87.89 304.73 83.84 294.89" style="fill:#fff"></polygon><path d="M77.14,309.37a.51.51,0,0,1-.47-.32l-4.56-11.2a.49.49,0,0,1,0-.41.47.47,0,0,1,.32-.26l11.27-2.77a.5.5,0,0,1,.58.29l4.06,9.84a.46.46,0,0,1,0,.38.44.44,0,0,1-.28.27l-10.75,4.14A.58.58,0,0,1,77.14,309.37ZM73.26,298l4.16,10.21,9.82-3.78-3.7-9Z" style="fill:#263238"></path><polygon points="118.13 286.46 110.46 288.35 113.07 295.05 120.47 292.2 118.13 286.46" style="fill:#407BFF"></polygon><path d="M113.07,295.55a.51.51,0,0,1-.47-.32l-2.61-6.7a.53.53,0,0,1,0-.41.54.54,0,0,1,.33-.26L118,286a.49.49,0,0,1,.58.29l2.35,5.74a.48.48,0,0,1,0,.39.46.46,0,0,1-.27.26l-7.41,2.85A.39.39,0,0,1,113.07,295.55Zm-1.94-6.85,2.22,5.7,6.47-2.49-2-4.86Z" style="fill:#263238"></path><polygon points="122.25 291.51 125.68 290.2 123.19 285.22 120 286 122.25 291.51" style="fill:#fff"></polygon><path d="M122.25,292a.49.49,0,0,1-.46-.31l-2.25-5.51a.49.49,0,0,1,0-.41.51.51,0,0,1,.33-.26l3.19-.79a.52.52,0,0,1,.57.26l2.48,5a.49.49,0,0,1,0,.41.48.48,0,0,1-.28.28L122.43,292Zm-1.57-5.66,1.85,4.52,2.45-.94-2.06-4.13Z" style="fill:#263238"></path><path d="M422.34,381.66a.5.5,0,0,1-.5-.5v-25.3a.5.5,0,0,1,.5-.5h24.21V265.85a.5.5,0,0,1,.5-.5.5.5,0,0,1,.5.5v90a.51.51,0,0,1-.5.5H422.84v24.8A.51.51,0,0,1,422.34,381.66Z" style="fill:#fff"></path><path d="M447.05,332.24H437a.51.51,0,0,1-.5-.5v-45.3a.5.5,0,0,1,.5-.5.5.5,0,0,1,.5.5v44.8h9.51a.5.5,0,0,1,.5.5A.51.51,0,0,1,447.05,332.24Z" style="fill:#fff"></path><path d="M394.69,365.77a.5.5,0,0,1-.5-.5V343.79l-29.77-18.1a.5.5,0,1,1,.52-.85l30,18.24a.49.49,0,0,1,.24.42v21.77A.5.5,0,0,1,394.69,365.77Z" style="fill:#fff"></path><path d="M380.57,355.77a.5.5,0,0,1-.5-.5V335.86a.5.5,0,0,1,.5-.5.5.5,0,0,1,.5.5v19.41A.5.5,0,0,1,380.57,355.77Z" style="fill:#fff"></path><path d="M405.28,362.24a.5.5,0,0,1-.31-.1l-10.59-8.24a.5.5,0,0,1,.61-.79l9.79,7.61V334.37L383.25,321a.54.54,0,0,1-.22-.28l-2.94-9.41a.5.5,0,1,1,1-.3l2.89,9.23,21.61,13.44a.49.49,0,0,1,.24.42v27.65a.5.5,0,0,1-.28.45A.59.59,0,0,1,405.28,362.24Z" style="fill:#fff"></path><path d="M47.59,382.24a.5.5,0,0,1-.5-.5V255.85a.5.5,0,0,1,.5-.5.5.5,0,0,1,.5.5V381.74A.5.5,0,0,1,47.59,382.24Z" style="fill:#fff"></path><path d="M65.24,316.35H51.71a.5.5,0,0,1-.5-.5.5.5,0,0,1,.5-.5H65.24a.51.51,0,0,1,.5.5A.5.5,0,0,1,65.24,316.35Z" style="fill:#fff"></path><path d="M75.24,379.89h-10a.5.5,0,0,1-.5-.5v-75.3a.5.5,0,0,1,.5-.5.5.5,0,0,1,.5.5v74.8h9.5a.5.5,0,1,1,0,1Z" style="fill:#fff"></path><path d="M64.65,349.89H54.06a.5.5,0,0,1-.5-.5V328.8a.5.5,0,0,1,.5-.5H65.24a.5.5,0,0,1,.5.5.51.51,0,0,1-.5.5H54.56v19.59H64.65a.5.5,0,0,1,.5.5A.51.51,0,0,1,64.65,349.89Z" style="fill:#fff"></path><path d="M79.94,382.83a.5.5,0,0,1-.5-.5V330.56a.51.51,0,0,1,.5-.5.5.5,0,0,1,.5.5v51.77A.5.5,0,0,1,79.94,382.83Z" style="fill:#fff"></path><path d="M416.45,385.72a.5.5,0,0,1-.5-.5V330.56a.51.51,0,0,1,.5-.5.5.5,0,0,1,.5.5v54.66A.5.5,0,0,1,416.45,385.72Z" style="fill:#fff"></path><path d="M87,335.18a.52.52,0,0,1-.44-.26.5.5,0,0,1,.21-.68l31.77-17.06a.48.48,0,0,1,.49,0,.5.5,0,0,1,.24.43V331.3l12.72-10a.51.51,0,0,1,.71.09.5.5,0,0,1-.09.7l-13.53,10.59a.5.5,0,0,1-.81-.39V318.46l-31,16.66A.53.53,0,0,1,87,335.18Z" style="fill:#fff"></path><path d="M90.53,361.65a.48.48,0,0,1-.4-.21.5.5,0,0,1,.11-.69l18-12.8V323.5a.5.5,0,0,1,1,0v24.71a.51.51,0,0,1-.21.41L90.82,361.56A.52.52,0,0,1,90.53,361.65Z" style="fill:#fff"></path><path d="M124.65,341.06a.5.5,0,0,1-.5-.5V328.21a.5.5,0,0,1,.5-.5.5.5,0,0,1,.5.5v12.35A.5.5,0,0,1,124.65,341.06Z" style="fill:#fff"></path></g></svg>